<svg width="1257" height="205" viewBox="0 0 1257 205" fill="none" xmlns="http://www.w3.org/2000/svg">
<path d="M498.6 101.138C498.6 58.7131 469.603 29.1326 422.508 29.1326H369.38V173.143H422.508C469.603 173.143 498.6 143.562 498.6 101.138ZM468.047 101.138C468.047 129.161 451.894 145.508 422.508 145.508H399.934V56.767H422.508C451.894 56.767 468.047 73.1141 468.047 101.138Z" fill="#07A4FD"/>
<path d="M625.026 130.329C625.415 127.021 625.61 122.934 625.61 118.069C625.61 86.5421 602.257 65.1352 570.925 65.1352C539.203 65.1352 516.24 88.8774 516.24 120.404C516.24 152.125 539.982 175.867 574.427 175.867C594.667 175.867 613.544 166.721 622.69 152.709L599.921 138.503C595.056 146.092 585.131 150.763 574.427 150.763C559.637 150.763 548.545 143.757 544.847 130.329H625.026ZM544.847 110.479C548.155 97.051 558.664 89.4612 571.119 89.4612C585.326 89.4612 595.64 98.024 597.002 110.479H544.847Z" fill="#07A4FD"/>
<path d="M661.747 67.8597H630.026L674.786 173.143H704.561L749.321 67.8597H718.378L689.966 137.335L661.747 67.8597Z" fill="#07A4FD"/>
<path d="M895.077 101.138C895.077 58.7131 866.08 29.1326 818.985 29.1326H765.857V173.143H818.985C866.08 173.143 895.077 143.562 895.077 101.138ZM864.523 101.138C864.523 129.161 848.371 145.508 818.985 145.508H796.41V56.767H818.985C848.371 56.767 864.523 73.1141 864.523 101.138Z" fill="#07A4FD"/>
<path d="M912.716 120.404C912.716 152.125 936.459 175.867 968.958 175.867C1001.07 175.867 1025.2 152.125 1025.2 120.404C1025.2 89.072 1001.07 65.1352 968.958 65.1352C936.459 65.1352 912.716 88.8774 912.716 120.404ZM996.787 120.404C996.787 128.772 994.257 135.778 989.003 141.422C983.943 147.065 977.326 149.79 968.958 149.79C960.59 149.79 953.973 147.065 948.719 141.422C943.464 135.778 940.935 128.772 940.935 120.404C940.935 112.036 943.464 105.03 948.719 99.5809C953.973 93.9372 960.59 91.2127 968.958 91.2127C977.326 91.2127 983.943 93.9372 989.003 99.5809C994.257 105.03 996.787 112.036 996.787 120.404Z" fill="#07A4FD"/>
<path d="M1041.83 120.404C1041.83 152.125 1065.58 175.867 1098.08 175.867C1118.32 175.867 1135.64 166.526 1145.56 151.152L1121.23 137.724C1116.37 145.314 1108 149.79 1098.08 149.79C1089.71 149.79 1083.09 147.065 1077.84 141.422C1072.58 135.778 1070.05 128.772 1070.05 120.404C1070.05 112.036 1072.58 105.03 1077.84 99.5809C1083.09 93.9372 1089.71 91.2127 1098.08 91.2127C1108 91.2127 1116.37 95.6887 1121.23 103.278L1145.56 89.6559C1135.64 74.2818 1118.32 65.1352 1098.08 65.1352C1065.58 65.1352 1041.83 88.8774 1041.83 120.404Z" fill="#07A4FD"/>
<path d="M1156.05 150.568C1160.13 157.38 1166.56 163.412 1175.31 168.278C1184.26 173.337 1194.77 175.867 1206.64 175.867C1235.25 175.867 1256.27 162.439 1256.27 142.2C1256.27 126.048 1245.37 116.512 1223.38 111.647L1208.79 108.338C1193.22 104.641 1189.13 102.5 1189.13 97.051C1189.13 91.6019 1196.33 88.099 1207.23 88.099C1218.13 88.099 1228.83 93.548 1233.31 100.749L1255.3 88.2936C1247.51 75.2548 1229.41 65.1352 1207.81 65.1352C1180.76 65.1352 1161.3 78.174 1161.3 98.6078C1161.3 114.371 1172.2 124.102 1194.19 128.967L1208.79 132.275C1224.35 135.973 1228.44 138.308 1228.44 143.952C1228.44 149.401 1219.68 152.904 1207.23 152.904C1194 152.904 1183.29 146.482 1178.04 138.113L1156.05 150.568Z" fill="#07A4FD"/>
<path d="M498.6 101.138C498.6 58.7131 469.603 29.1326 422.508 29.1326H369.38V173.143H422.508C469.603 173.143 498.6 143.562 498.6 101.138ZM468.047 101.138C468.047 129.161 451.894 145.508 422.508 145.508H399.934V56.767H422.508C451.894 56.767 468.047 73.1141 468.047 101.138Z" fill="#000938"/>
<path d="M625.026 130.329C625.415 127.021 625.61 122.934 625.61 118.069C625.61 86.5421 602.257 65.1352 570.925 65.1352C539.203 65.1352 516.24 88.8774 516.24 120.404C516.24 152.125 539.982 175.867 574.427 175.867C594.667 175.867 613.544 166.721 622.69 152.709L599.921 138.503C595.056 146.092 585.131 150.763 574.427 150.763C559.637 150.763 548.545 143.757 544.847 130.329H625.026ZM544.847 110.479C548.155 97.051 558.664 89.4612 571.119 89.4612C585.326 89.4612 595.64 98.024 597.002 110.479H544.847Z" fill="#000938"/>
<path d="M661.747 67.8597H630.026L674.786 173.143H704.561L749.321 67.8597H718.378L689.966 137.335L661.747 67.8597Z" fill="#000938"/>
<path fill-rule="evenodd" clip-rule="evenodd" d="M178.717 0.5H239.538L317.784 102.5L239.538 204.5H191.477V164.148H219.635L266.927 102.5L219.635 40.8517H204.237L126.761 204.179L81.6304 204.5L178.717 0.5Z" fill="url(#paint0_linear_1064_558)"/>
<path fill-rule="evenodd" clip-rule="evenodd" d="M98.3064 40.8517H126.465V0.5H78.4041L0.157471 102.5L78.4041 204.5H126.465V164.148H98.3064L51.0145 102.5L98.3064 40.8517Z" fill="url(#paint1_linear_1064_558)"/>
<defs>
<linearGradient id="paint0_linear_1064_558" x1="219.658" y1="42" x2="127.658" y2="204.5" gradientUnits="userSpaceOnUse">
<stop stop-color="#56C2FF"/>
<stop offset="0.204072" stop-color="#07A4FD"/>
<stop offset="1" stop-color="#07A4FD" stop-opacity="0"/>
</linearGradient>
<linearGradient id="paint1_linear_1064_558" x1="63.3113" y1="0.5" x2="63.3113" y2="204.5" gradientUnits="userSpaceOnUse">
<stop stop-color="#FF5C00"/>
<stop offset="0.480113" stop-color="#DF3E3C"/>
<stop offset="1" stop-color="#3B109E"/>
</linearGradient>
</defs>
</svg>
